<mxfile host="app.diagrams.net" agent="Mozilla/5.0 (Windows NT 10.0; Win64; x64) AppleWebKit/537.36 (KHTML, like Gecko) Chrome/128.0.0.0 Safari/537.36 Edg/128.0.0.0" version="24.7.16">
  <diagram name="Página-1" id="8-RtyK5Z0lolNeWYX-Tf">
    <mxGraphModel dx="1434" dy="752" grid="1" gridSize="10" guides="1" tooltips="1" connect="1" arrows="1" fold="1" page="1" pageScale="1" pageWidth="827" pageHeight="1169" math="0" shadow="0">
      <root>
        <mxCell id="0" />
        <mxCell id="1" parent="0" />
        <mxCell id="fkE4tANgzUeRwsHTc3pA-3" value="FABRICANTE" style="rounded=0;whiteSpace=wrap;html=1;" parent="1" vertex="1">
          <mxGeometry x="185" y="230" width="120" height="60" as="geometry" />
        </mxCell>
        <mxCell id="fkE4tANgzUeRwsHTc3pA-4" value="PROPRIETÁRIO" style="rounded=0;whiteSpace=wrap;html=1;" parent="1" vertex="1">
          <mxGeometry x="525" y="230" width="120" height="60" as="geometry" />
        </mxCell>
        <mxCell id="fkE4tANgzUeRwsHTc3pA-5" value="VEÍCULO" style="rounded=0;whiteSpace=wrap;html=1;" parent="1" vertex="1">
          <mxGeometry x="350" y="380" width="120" height="60" as="geometry" />
        </mxCell>
        <mxCell id="fkE4tANgzUeRwsHTc3pA-6" value="CHASSI" style="ellipse;whiteSpace=wrap;html=1;" parent="1" vertex="1">
          <mxGeometry x="210" y="450" width="70" height="50" as="geometry" />
        </mxCell>
        <mxCell id="fkE4tANgzUeRwsHTc3pA-8" value="" style="endArrow=none;html=1;rounded=0;" parent="1" source="fkE4tANgzUeRwsHTc3pA-6" target="fkE4tANgzUeRwsHTc3pA-5" edge="1">
          <mxGeometry width="50" height="50" relative="1" as="geometry">
            <mxPoint x="390" y="410" as="sourcePoint" />
            <mxPoint x="440" y="360" as="targetPoint" />
          </mxGeometry>
        </mxCell>
        <mxCell id="fkE4tANgzUeRwsHTc3pA-9" value="PLACA" style="ellipse;whiteSpace=wrap;html=1;" parent="1" vertex="1">
          <mxGeometry x="210" y="360" width="70" height="50" as="geometry" />
        </mxCell>
        <mxCell id="fkE4tANgzUeRwsHTc3pA-10" value="" style="endArrow=none;html=1;rounded=0;" parent="1" source="fkE4tANgzUeRwsHTc3pA-9" target="fkE4tANgzUeRwsHTc3pA-5" edge="1">
          <mxGeometry width="50" height="50" relative="1" as="geometry">
            <mxPoint x="486" y="474" as="sourcePoint" />
            <mxPoint x="447" y="430" as="targetPoint" />
          </mxGeometry>
        </mxCell>
        <mxCell id="fkE4tANgzUeRwsHTc3pA-11" value="ANO" style="ellipse;whiteSpace=wrap;html=1;" parent="1" vertex="1">
          <mxGeometry x="550" y="390" width="70" height="50" as="geometry" />
        </mxCell>
        <mxCell id="fkE4tANgzUeRwsHTc3pA-12" value="" style="endArrow=none;html=1;rounded=0;" parent="1" source="fkE4tANgzUeRwsHTc3pA-11" target="fkE4tANgzUeRwsHTc3pA-5" edge="1">
          <mxGeometry width="50" height="50" relative="1" as="geometry">
            <mxPoint x="486" y="474" as="sourcePoint" />
            <mxPoint x="447" y="430" as="targetPoint" />
          </mxGeometry>
        </mxCell>
        <mxCell id="fkE4tANgzUeRwsHTc3pA-15" value="CARRO" style="rounded=0;whiteSpace=wrap;html=1;absoluteArcSize=0;imageAspect=1;noLabel=0;portConstraintRotation=0;fixDash=0;container=0;dropTarget=0;collapsible=0;" parent="1" vertex="1">
          <mxGeometry x="480" y="570" width="120" height="60" as="geometry" />
        </mxCell>
        <mxCell id="fkE4tANgzUeRwsHTc3pA-16" value="CAMINHÃO" style="whiteSpace=wrap;html=1;" parent="1" vertex="1">
          <mxGeometry x="230" y="570" width="120" height="60" as="geometry" />
        </mxCell>
        <mxCell id="fkE4tANgzUeRwsHTc3pA-20" value="" style="endArrow=none;html=1;rounded=0;" parent="1" source="fkE4tANgzUeRwsHTc3pA-32" target="fkE4tANgzUeRwsHTc3pA-3" edge="1">
          <mxGeometry width="50" height="50" relative="1" as="geometry">
            <mxPoint x="390" y="510" as="sourcePoint" />
            <mxPoint x="440" y="460" as="targetPoint" />
          </mxGeometry>
        </mxCell>
        <mxCell id="fkE4tANgzUeRwsHTc3pA-21" value="" style="endArrow=none;html=1;rounded=0;" parent="1" source="fkE4tANgzUeRwsHTc3pA-4" target="fkE4tANgzUeRwsHTc3pA-32" edge="1">
          <mxGeometry width="50" height="50" relative="1" as="geometry">
            <mxPoint x="375" y="370" as="sourcePoint" />
            <mxPoint x="300" y="320" as="targetPoint" />
          </mxGeometry>
        </mxCell>
        <mxCell id="fkE4tANgzUeRwsHTc3pA-23" value="" style="endArrow=none;html=1;rounded=0;" parent="1" source="fkE4tANgzUeRwsHTc3pA-60" target="fkE4tANgzUeRwsHTc3pA-5" edge="1">
          <mxGeometry width="50" height="50" relative="1" as="geometry">
            <mxPoint x="410" y="470" as="sourcePoint" />
            <mxPoint x="400" y="430" as="targetPoint" />
          </mxGeometry>
        </mxCell>
        <mxCell id="fkE4tANgzUeRwsHTc3pA-24" value="&lt;u&gt;CPF&lt;/u&gt;" style="ellipse;whiteSpace=wrap;html=1;shadow=0;" parent="1" vertex="1">
          <mxGeometry x="690" y="170" width="80" height="50" as="geometry" />
        </mxCell>
        <mxCell id="fkE4tANgzUeRwsHTc3pA-25" value="" style="endArrow=none;html=1;rounded=0;" parent="1" source="fkE4tANgzUeRwsHTc3pA-4" target="fkE4tANgzUeRwsHTc3pA-24" edge="1">
          <mxGeometry width="50" height="50" relative="1" as="geometry">
            <mxPoint x="390" y="510" as="sourcePoint" />
            <mxPoint x="440" y="460" as="targetPoint" />
          </mxGeometry>
        </mxCell>
        <mxCell id="fkE4tANgzUeRwsHTc3pA-26" value="NOME" style="ellipse;whiteSpace=wrap;html=1;shadow=0;" parent="1" vertex="1">
          <mxGeometry x="545" y="130" width="80" height="50" as="geometry" />
        </mxCell>
        <mxCell id="fkE4tANgzUeRwsHTc3pA-27" value="" style="endArrow=none;html=1;rounded=0;" parent="1" source="fkE4tANgzUeRwsHTc3pA-4" target="fkE4tANgzUeRwsHTc3pA-26" edge="1">
          <mxGeometry width="50" height="50" relative="1" as="geometry">
            <mxPoint x="655" y="243" as="sourcePoint" />
            <mxPoint x="707" y="220" as="targetPoint" />
          </mxGeometry>
        </mxCell>
        <mxCell id="fkE4tANgzUeRwsHTc3pA-28" value="&lt;u&gt;NOME&lt;/u&gt;" style="ellipse;whiteSpace=wrap;html=1;" parent="1" vertex="1">
          <mxGeometry x="205" y="130" width="80" height="50" as="geometry" />
        </mxCell>
        <mxCell id="fkE4tANgzUeRwsHTc3pA-29" value="" style="endArrow=none;html=1;rounded=0;" parent="1" source="fkE4tANgzUeRwsHTc3pA-3" target="fkE4tANgzUeRwsHTc3pA-28" edge="1">
          <mxGeometry width="50" height="50" relative="1" as="geometry">
            <mxPoint x="387" y="390" as="sourcePoint" />
            <mxPoint x="288" y="300" as="targetPoint" />
          </mxGeometry>
        </mxCell>
        <mxCell id="fkE4tANgzUeRwsHTc3pA-30" value="&lt;u&gt;PAÍS ORIGEM&lt;/u&gt;" style="ellipse;whiteSpace=wrap;html=1;" parent="1" vertex="1">
          <mxGeometry x="60" y="170" width="75" height="50" as="geometry" />
        </mxCell>
        <mxCell id="fkE4tANgzUeRwsHTc3pA-31" value="" style="endArrow=none;html=1;rounded=0;" parent="1" source="fkE4tANgzUeRwsHTc3pA-3" target="fkE4tANgzUeRwsHTc3pA-30" edge="1">
          <mxGeometry width="50" height="50" relative="1" as="geometry">
            <mxPoint x="255" y="240" as="sourcePoint" />
            <mxPoint x="255" y="190" as="targetPoint" />
          </mxGeometry>
        </mxCell>
        <mxCell id="fkE4tANgzUeRwsHTc3pA-32" value="TEM" style="rhombus;whiteSpace=wrap;html=1;" parent="1" vertex="1">
          <mxGeometry x="370" y="260" width="80" height="80" as="geometry" />
        </mxCell>
        <mxCell id="fkE4tANgzUeRwsHTc3pA-33" value="" style="endArrow=none;html=1;rounded=0;" parent="1" source="fkE4tANgzUeRwsHTc3pA-5" target="fkE4tANgzUeRwsHTc3pA-32" edge="1">
          <mxGeometry width="50" height="50" relative="1" as="geometry">
            <mxPoint x="390" y="410" as="sourcePoint" />
            <mxPoint x="440" y="360" as="targetPoint" />
          </mxGeometry>
        </mxCell>
        <mxCell id="fkE4tANgzUeRwsHTc3pA-36" value="TONELAGEM" style="ellipse;whiteSpace=wrap;html=1;" parent="1" vertex="1">
          <mxGeometry x="110" y="660" width="75" height="50" as="geometry" />
        </mxCell>
        <mxCell id="fkE4tANgzUeRwsHTc3pA-37" value="EIXOS" style="ellipse;whiteSpace=wrap;html=1;" parent="1" vertex="1">
          <mxGeometry x="252.5" y="690" width="75" height="50" as="geometry" />
        </mxCell>
        <mxCell id="fkE4tANgzUeRwsHTc3pA-39" value="COR" style="ellipse;whiteSpace=wrap;html=1;" parent="1" vertex="1">
          <mxGeometry x="502.5" y="690" width="75" height="50" as="geometry" />
        </mxCell>
        <mxCell id="fkE4tANgzUeRwsHTc3pA-40" value="" style="endArrow=none;html=1;rounded=0;" parent="1" source="fkE4tANgzUeRwsHTc3pA-36" target="fkE4tANgzUeRwsHTc3pA-16" edge="1">
          <mxGeometry width="50" height="50" relative="1" as="geometry">
            <mxPoint x="390" y="510" as="sourcePoint" />
            <mxPoint x="440" y="460" as="targetPoint" />
          </mxGeometry>
        </mxCell>
        <mxCell id="fkE4tANgzUeRwsHTc3pA-41" value="" style="endArrow=none;html=1;rounded=0;" parent="1" source="fkE4tANgzUeRwsHTc3pA-37" target="fkE4tANgzUeRwsHTc3pA-16" edge="1">
          <mxGeometry width="50" height="50" relative="1" as="geometry">
            <mxPoint x="185" y="678" as="sourcePoint" />
            <mxPoint x="250" y="640" as="targetPoint" />
          </mxGeometry>
        </mxCell>
        <mxCell id="fkE4tANgzUeRwsHTc3pA-42" value="" style="endArrow=none;html=1;rounded=0;" parent="1" source="fkE4tANgzUeRwsHTc3pA-39" target="fkE4tANgzUeRwsHTc3pA-15" edge="1">
          <mxGeometry width="50" height="50" relative="1" as="geometry">
            <mxPoint x="300" y="700" as="sourcePoint" />
            <mxPoint x="300" y="640" as="targetPoint" />
          </mxGeometry>
        </mxCell>
        <mxCell id="fkE4tANgzUeRwsHTc3pA-60" value="D" style="ellipse;whiteSpace=wrap;html=1;aspect=fixed;rounded=0;strokeColor=default;align=center;verticalAlign=middle;fontFamily=Helvetica;fontSize=12;fontColor=default;fillColor=default;" parent="1" vertex="1">
          <mxGeometry x="395" y="490" width="30" height="30" as="geometry" />
        </mxCell>
        <mxCell id="fkE4tANgzUeRwsHTc3pA-61" value="" style="endArrow=none;html=1;rounded=0;fontFamily=Helvetica;fontSize=12;fontColor=default;" parent="1" source="fkE4tANgzUeRwsHTc3pA-16" target="fkE4tANgzUeRwsHTc3pA-60" edge="1">
          <mxGeometry width="50" height="50" relative="1" as="geometry">
            <mxPoint x="390" y="510" as="sourcePoint" />
            <mxPoint x="440" y="460" as="targetPoint" />
          </mxGeometry>
        </mxCell>
        <mxCell id="fkE4tANgzUeRwsHTc3pA-62" value="" style="endArrow=none;html=1;rounded=0;fontFamily=Helvetica;fontSize=12;fontColor=default;entryX=1;entryY=1;entryDx=0;entryDy=0;elbow=vertical;endFill=0;jumpStyle=none;shadow=0;fixDash=0;" parent="1" source="fkE4tANgzUeRwsHTc3pA-15" target="fkE4tANgzUeRwsHTc3pA-60" edge="1">
          <mxGeometry width="50" height="50" relative="1" as="geometry">
            <mxPoint x="338" y="580" as="sourcePoint" />
            <mxPoint x="408" y="524" as="targetPoint" />
          </mxGeometry>
        </mxCell>
        <mxCell id="pChuj3IkLnj2u-gyx4Vp-1" value="" style="shape=requiredInterface;html=1;verticalLabelPosition=bottom;sketch=0;rotation=40;" vertex="1" parent="1">
          <mxGeometry x="453" y="530" width="10" height="20" as="geometry" />
        </mxCell>
        <mxCell id="pChuj3IkLnj2u-gyx4Vp-3" value="" style="shape=requiredInterface;html=1;verticalLabelPosition=bottom;sketch=0;rotation=135;" vertex="1" parent="1">
          <mxGeometry x="357" y="532" width="10" height="20" as="geometry" />
        </mxCell>
      </root>
    </mxGraphModel>
  </diagram>
</mxfile>
